# xmcd CD database file generated by OrangeCD 5.2
#
# Track frame offsets:
#	150
#	26553
#	54937
#	77806
#	106061
#	128117
#	150469
#	183767
#	202900
#	244812
#	270014
#	316828
#	339740
#
# Disc length: 4820 seconds
#
# Revision: 3
# Processed by: cddbd v1.5.2PL0 Copyright (c) Steve Scherf et al.
# Submitted via: OrangeCD 5.2
#
DISCID=9812d20d
DTITLE=Aynsley Lister - Live !
DYEAR=2004
DGENRE=Blues-Rock
TTITLE0=Aeroplane Blues
TTITLE1=As The Crow Flies
TTITLE2=Say Goodbye
TTITLE3=Balls Of Steel
TTITLE4=Snake
TTITLE5=Everything I Need
TTITLE6=Angle 'O' Mine
TTITLE7=Now You're Gone
TTITLE8=Take Me To The River
TTITLE9=Runnin' Out On Me
TTITLE10=Sometimes It Gets 2 Me
TTITLE11=Soundman
TTITLE12=Fallin' Down
EXTD=YEAR: 2004
EXTT0=
EXTT1=
EXTT2=
EXTT3=
EXTT4=
EXTT5=
EXTT6=
EXTT7=
EXTT8=
EXTT9=
EXTT10=
EXTT11=
EXTT12=
PLAYORDER=
